<svg width="4510" height="488" viewBox="0 0 4510 488" fill="none" xmlns="http://www.w3.org/2000/svg">
<path d="M2143.38 30C2262.35 30 2358.76 125.831 2358.76 244.006C2358.76 362.18 2262.35 458.012 2143.38 458.012C2024.41 458.011 1928 362.18 1928 244.006C1928 125.832 2024.41 30.0002 2143.38 30Z" stroke="#E63946" stroke-width="6"/>
<path d="M2143.72 4V118.97" stroke="#E63946" stroke-width="8" stroke-linecap="round"/>
<path d="M2143.72 186.515V301.485" stroke="#E63946" stroke-width="8" stroke-linecap="round"/>
<path d="M2143.72 369.03V484" stroke="#E63946" stroke-width="8" stroke-linecap="round"/>
<path d="M2383 244H2266.24" stroke="#E63946" stroke-width="8" stroke-linecap="round"/>
<path d="M2019.76 244H1903" stroke="#E63946" stroke-width="8" stroke-linecap="round"/>
<path d="M2201.38 244H2084.62" stroke="#E63946" stroke-width="8" stroke-linecap="round"/>
<path d="M116.822 484V69.9773H0V4H309.306V69.9773H193.09V484H116.822Z" fill="#2563EB"/>
<path d="M376.125 484V4H452.393V484H376.125Z" fill="#2563EB"/>
<path d="M829.54 484H666.715C629.994 484 602.755 476.333 585 460.999C567.245 445.261 558.367 420.847 558.367 387.758V100.847C558.367 67.3544 567.245 42.9407 585 27.6066C602.755 11.8689 629.994 4 666.715 4H829.54V72.3985H644.319C638.67 72.3985 635.845 75.2232 635.845 80.8727V407.733C635.845 412.979 638.67 415.602 644.319 415.602H829.54V484Z" fill="#2563EB"/>
<path d="M899.721 484V4H975.988V208.59H1074.65C1077.48 208.59 1079.29 207.985 1080.1 206.774C1080.91 205.16 1081.92 202.941 1083.13 200.116L1166.05 4H1242.32L1167.26 177.72C1159.59 195.475 1152.73 209.397 1146.68 219.485C1141.03 229.17 1133.16 236.434 1123.08 241.276C1134.37 245.715 1143.25 252.979 1149.71 263.067C1156.57 273.155 1164.44 287.279 1173.31 305.438L1260.48 484H1179.37L1083.13 282.436C1081.92 279.612 1080.91 277.594 1080.1 276.383C1079.29 275.173 1077.27 274.567 1074.05 274.567H975.988V484H899.721Z" fill="#2563EB"/>
<path d="M1317.55 484V4H1589.33V69.9773H1393.82V207.985H1576.01V273.357H1393.82V418.023H1593.57V484H1317.55Z" fill="#2563EB"/>
<path d="M1738.24 484V69.9773H1621.41V4H1930.72V69.9773H1814.5V484H1738.24Z" fill="#2563EB"/>
<path d="M2623.24 209.038C2660.29 209.038 2688.58 217.604 2708.1 234.736C2727.63 251.47 2737.39 276.371 2737.39 309.44V382.35C2737.39 416.216 2727.83 441.914 2708.7 459.444C2689.98 476.576 2662.09 484.744 2625.03 483.947L2442.16 480.959V415.817H2650.73C2657.11 415.817 2660.29 412.63 2660.29 406.255V286.73C2660.29 280.355 2657.11 277.168 2650.73 277.168H2544.35C2507.3 277.168 2479.21 269 2460.09 252.665C2441.36 236.33 2432 211.23 2432 177.364V106.844C2432 73.7752 2441.76 48.2764 2461.28 30.3476C2480.81 12.0203 2509.09 3.25514 2546.15 4.05197L2720.06 7.0401V72.1815H2518.66C2512.28 72.1815 2509.09 75.5681 2509.09 82.3412V199.476C2509.09 205.851 2512.28 209.038 2518.66 209.038H2623.24Z" fill="#2563EB"/>
<path d="M3083.14 7.0401H3148.28V480.959H3095.69L2876.96 143.897V480.959H2811.82V7.0401H2863.81L3083.14 344.7V7.0401Z" fill="#2563EB"/>
<path d="M3256.84 480.959V7.0401H3332.14V480.959H3256.84Z" fill="#2563EB"/>
<path d="M3446.93 480.959V7.0401L3647.14 4.05197C3684.19 3.25514 3712.08 11.6219 3730.81 29.1523C3749.53 46.2843 3758.9 71.7831 3758.9 105.649V202.464C3758.9 234.338 3749.53 259.637 3730.81 278.363C3712.08 296.69 3684.19 305.854 3647.14 305.854H3522.24V480.959H3446.93ZM3672.24 69.791H3522.24V240.712H3672.24C3678.62 240.712 3681.8 237.525 3681.8 231.15V79.353C3681.8 72.9783 3678.62 69.791 3672.24 69.791Z" fill="#2563EB"/>
<path d="M3831.5 480.959V7.0401H4099.83V72.1815H3906.8V208.441H4086.69V272.984H3906.8V415.817H4104.02V480.959H3831.5Z" fill="#2563EB"/>
<path d="M4181.71 480.959V7.0401L4381.32 4.05197C4418.37 3.25514 4446.26 11.6219 4464.99 29.1523C4484.11 46.2843 4493.67 71.7831 4493.67 105.649V190.512C4493.67 241.111 4471.76 273.184 4427.94 286.73C4439.89 295.097 4449.85 310.834 4457.82 333.942L4509.81 480.959H4433.91L4374.15 304.659C4372.95 301.073 4371.56 298.682 4369.97 297.487C4368.77 295.893 4366.18 295.097 4362.2 295.097H4257.01V480.959H4181.71ZM4407.02 69.791H4257.01V230.553H4407.02C4413.39 230.553 4416.58 227.166 4416.58 220.393V79.353C4416.58 72.9783 4413.39 69.791 4407.02 69.791Z" fill="#2563EB"/>
</svg>
